<svg height="512pt" viewBox="0 0 512 512.178" width="512pt" xmlns="http://www.w3.org/2000/svg">
  <path d="M496.906 169.148C460.301 67.648 363.984 0 256.09 0 148.19 0 51.879 67.648 15.273 169.148a256.508 256.508 0 0 0-.09 173.637C51.72 444.41 148.099 512.18 256.09 512.18c107.992 0 204.37-67.77 240.902-169.395a256.484 256.484 0 0 0-.086-173.637zM390.27 300.058a141.864 141.864 0 0 1-90.043 90.22 141.428 141.428 0 0 1-88.274 0 141.856 141.856 0 0 1-90.043-90.22 140.358 140.358 0 0 1 .09-88.187c14.066-42.555 47.473-75.922 90.04-89.953a140.947 140.947 0 0 1 88.1 0 141.48 141.48 0 0 1 90.04 89.953 140.358 140.358 0 0 1 .09 88.188zm0 0" fill="#e64c3c"/>
  <g fill="#e6e7e8">
    <path d="M88.363 256.098a164.88 164.88 0 0 0 8.918 53.851l-82.097 32.836a256.508 256.508 0 0 1 .09-173.637l82.097 32.836a166.175 166.175 0 0 0-9.008 54.114zm0 0M342.863 15.195L310.027 97.29a167.623 167.623 0 0 0-107.875 0l-32.84-82.094a256.94 256.94 0 0 1 173.551 0zm0 0M512.09 256.098a253.728 253.728 0 0 1-15.098 86.687l-82.094-32.836v-.09a164.328 164.328 0 0 0 8.914-53.761c.02-18.41-3.023-36.7-9.003-54.114l82.097-32.836a253.242 253.242 0 0 1 15.184 86.95zm0 0M342.953 497.004a257.492 257.492 0 0 1-173.726 0l32.835-82.098a168.103 168.103 0 0 0 108.051 0zm0 0"/>
  </g>
  <path d="M79.54 150.168a8.83 8.83 0 0 1-6.958-3.395 8.82 8.82 0 0 1-1.605-7.57 97.094 97.094 0 0 1 48.753-58.719 8.828 8.828 0 0 1 8.813.532 8.837 8.837 0 0 1 3.95 7.902 8.833 8.833 0 0 1-4.872 7.367A80.602 80.602 0 0 0 88.09 143.52a8.825 8.825 0 0 1-8.55 6.648zm0 0M158.984 70.719a8.826 8.826 0 0 1-8.828 8.828c-4.875 0-8.824-3.953-8.824-8.828s3.95-8.828 8.824-8.828a8.826 8.826 0 0 1 8.828 8.828zm0 0" fill="#fb7b76"/>
  <path d="M70.71 273.754a8.829 8.829 0 0 1-8.827-8.828V247.27c0-4.875 3.953-8.825 8.828-8.825s8.828 3.95 8.828 8.825v17.656a8.829 8.829 0 0 1-8.828 8.828zm0 0M441.469 273.754a8.829 8.829 0 0 1-8.828-8.828V247.27c0-4.875 3.953-8.825 8.828-8.825s8.828 3.95 8.828 8.825v17.656a8.829 8.829 0 0 1-8.828 8.828zm0 0M264.918 79.547h-17.656a8.829 8.829 0 0 1 0-17.656h17.656a8.829 8.829 0 0 1 0 17.656zm0 0M264.918 450.305h-17.656a8.826 8.826 0 0 1-8.828-8.828c0-4.875 3.953-8.825 8.828-8.825h17.656c4.875 0 8.828 3.95 8.828 8.825a8.826 8.826 0 0 1-8.828 8.828zm0 0" fill="#fff"/>
  <path d="M114.848 256.098a138.908 138.908 0 0 0 7.062 43.96h-.09l-24.539 9.891a167.09 167.09 0 0 1 .09-107.965l24.45 9.801.179.086a138.176 138.176 0 0 0-7.152 44.227zm0 0" fill="#bdc3c7"/>
  <path d="M212.04 121.918c-42.567 14.031-75.974 47.398-90.04 89.953l-.18-.086-24.449-9.8A167.809 167.809 0 0 1 202.152 97.288l9.801 24.367zm0 0" fill="#c03a2b"/>
  <path d="M310.027 97.29l-9.8 24.366-.086.262a140.947 140.947 0 0 0-88.102 0l-.086-.262-9.8-24.367a167.623 167.623 0 0 1 107.874 0zm0 0" fill="#bdc3c7"/>
  <path d="M414.809 201.984l-24.454 9.801-.175.086a141.48 141.48 0 0 0-90.04-89.953l.087-.262 9.8-24.367A167.809 167.809 0 0 1 414.81 201.984zm0 0" fill="#c03a2b"/>
  <path d="M423.813 256.098a164.328 164.328 0 0 1-8.915 53.761l-24.543-9.8h-.085a140.358 140.358 0 0 0-.09-88.188l.175-.086 24.454-9.8a166.067 166.067 0 0 1 9.003 54.113zm0 0" fill="#bdc3c7"/>
  <path d="M414.898 309.86v.09a167.806 167.806 0 0 1-104.785 104.956l-9.886-24.629a141.864 141.864 0 0 0 90.043-90.218h.085zm0 0" fill="#c03a2b"/>
  <path d="M310.113 414.906a168.103 168.103 0 0 1-108.05 0l9.89-24.629a141.428 141.428 0 0 0 88.274 0zm0 0" fill="#bdc3c7"/>
  <path d="M211.953 390.277l-9.89 24.63A167.79 167.79 0 0 1 97.28 309.948l24.54-9.89h.09a141.856 141.856 0 0 0 90.042 90.218zm0 0" fill="#c03a2b"/>
  <path d="M17.746 256.098a235.94 235.94 0 0 0 13.86 80.156l-16.422 6.531a256.508 256.508 0 0 1 .09-173.637l16.417 6.532a237.495 237.495 0 0 0-13.945 80.418zm0 0" fill="#bdc3c7"/>
  <path d="M175.934 31.613A238.824 238.824 0 0 0 31.69 175.68l-16.418-6.532a256.596 256.596 0 0 1 154.04-153.953zm0 0" fill="#c03a2b"/>
  <path d="M342.863 15.195l-2.824 6.973-3.797 9.445a238.696 238.696 0 0 0-160.308 0l-6.622-16.418a256.94 256.94 0 0 1 173.551 0zm0 0" fill="#bdc3c7"/>
  <path d="M496.906 169.148l-16.418 6.532A238.913 238.913 0 0 0 336.332 31.613l3.707-9.445 2.824-6.973a256.602 256.602 0 0 1 154.043 153.953zm0 0" fill="#c03a2b"/>
  <path d="M512.09 256.098a253.728 253.728 0 0 1-15.098 86.687l-16.418-6.531a238.8 238.8 0 0 0-.086-160.574l16.418-6.532a253.242 253.242 0 0 1 15.184 86.95zm0 0" fill="#bdc3c7"/>
  <path d="M496.992 342.785a256.571 256.571 0 0 1-154.039 154.219l-6.621-16.508a238.651 238.651 0 0 0 144.242-144.242zm0 0" fill="#c03a2b"/>
  <path d="M342.953 497.004a257.492 257.492 0 0 1-173.726 0l6.62-16.508a237.785 237.785 0 0 0 160.485 0zm0 0" fill="#bdc3c7"/>
  <path d="M175.848 480.496l-6.621 16.508A256.587 256.587 0 0 1 15.184 342.785l16.421-6.531a238.651 238.651 0 0 0 144.243 144.242zm0 0" fill="#c03a2b"/>
</svg>
