<svg xmlns="http://www.w3.org/2000/svg" height="512" viewBox="-4 0 511 511.602" width="512">
  <path d="M.3 502.922a8.68 8.68 0 0 0 8.567 8.68h9.969a8.403 8.403 0 0 0 8.488-7.258l15.04-112.813a8.782 8.782 0 0 0-8.68-9.938h-1.621l17.703-103.706c24.418 2.34 56.406 5.343 81.39 7.367l8.946-52.215c-25.051-2.023-57.04-5.035-81.391-7.387l2.934-17.156c24.386 2.344 56.406 5.356 81.398 7.367l9.121-53.422c-25.262-2.152-57.273-5.25-81.355-7.582l2.933-17.156c24.098 2.332 56.149 5.43 81.356 7.567l8.75-51.079c-25.168-1.996-57.278-5-81.41-7.308l2.906-17.121c24.18 2.3 56.312 5.3 81.41 7.289l5.91-34.563c-21.793-1.797-48.156-4.593-81.297-7.914L95.61 9.746a8.677 8.677 0 0 0-17.086-2.934L14.7 380.122a8.306 8.306 0 0 0 .051 1.733 8.678 8.678 0 0 0-6.996 7.032L.3 433.5zm0 0M184.16 78.406c39.461 3.043 75.36 5.535 95.293 6.88l5.817-34.849c-45.258-3.023-72.942-4.843-95.2-6.578zm0 0M172.48 146.734c38.782 3.23 74.465 6.016 95.458 7.621l8.68-51.859c-20.552-1.398-56.321-3.89-95.364-6.945zm0 0M160.418 217.27a10911.41 10911.41 0 0 0 95.84 7.074l8.808-52.797c-21.48-1.649-57.05-4.438-95.527-7.649zm0 0M148.555 286.633c40.543 3.183 77.12 5.777 96.125 7.09l8.68-52.18c-19.622-1.371-55.887-3.95-95.91-7.102zm0 0M273.656 225.637c28.914 2.508 45.992 9.734 55.95 17.734l5.828-44.437c-.329-6.778-2.559-22.563-49.34-25.793l-3.637-.278zm0 0M344.844 260.582l44.543 5.555 8.738-51.922-46.504-5.32zm0 0M358.45 156.828l-4.575 34.86 47.133 5.386 5.883-34.969zm0 0M293.98 103.656l-8.68 52.07 2.016.145c23.793 1.652 40.961 6.727 51.747 15.336l3.28-25 2.177-16.621c-.32-6.316-2.723-22.563-49.836-25.832zm0 0M303.395 51.668h-.727l-5.816 34.867c23.554 1.738 40.59 6.82 51.304 15.352l.965-7.34c.18-1.328.406-2.692.649-4.125a29.61 29.61 0 0 0-2.602-24.043c-6.273-8.027-21.398-13.098-43.773-14.711zm0 0M485.902 224.254l-70.507-8.07-8.766 52.105 70.195 8.746zm0 0M299.84 394.543c5.707.816 10.031 1.535 15.273 2.402 9.485 1.563 21.98 3.621 50.98 7.735l8.794-52.285-41.5-5.207c-2.668 10.511-12.457 17.628-23.282 16.921h-.382a14.546 14.546 0 0 0-13.016 12.02l-1.156 6.379c-.39 6.203 1.535 11.629 4.289 12.035zm0 0M386.516 283.266l-43.93-5.477-6.848 52.215 42.028 5.262zm0 0M461.969 363.277l-69.84-8.75-8.844 52.547c17.809 2.473 40.328 5.528 69.547 9.399zm0 0M494.945 171.691l-70.77-7.703-5.902 35.067 70.579 8.078zm0 0M473.883 294.156l-70.133-8.746-8.742 52.008 69.922 8.738zm0 0M304.297 305.281a68.378 68.378 0 0 1 15.875 9.903l6.125-46.707c-.867-10.098-15.871-22.563-55.54-25.704l-8.675 52.243a131.037 131.037 0 0 1 40.211 9.363c.703.215 1.379.52 2.004.902zm0 0M301.758 348.02a28.483 28.483 0 0 1 8.84-1.25 4.978 4.978 0 0 0 6.074-4.973 20.772 20.772 0 0 0-10.906-16.07zm0 0M121.871 328.496a8.667 8.667 0 0 0 1.887 6.375 8.658 8.658 0 0 0 5.844 3.168c86.214 8.617 120.71 8.793 122.144 8.793 4.793 0 8.676-3.887 8.676-8.68a8.674 8.674 0 0 0-8.676-8.675c-.34 0-35.293-.192-120.441-8.68-4.72-.442-8.918 2.988-9.434 7.7zm0 0M503.621 130.637a8.674 8.674 0 0 0-7.922-9.371l-104.258-8.852a8.576 8.576 0 0 0-9.379 7.914 8.684 8.684 0 0 0 1.977 6.356 8.687 8.687 0 0 0 5.902 3.086l104.239 8.824c.246.015.492.015.738 0a8.674 8.674 0 0 0 8.703-7.957zm0 0M252.828 364.117l-86.777-8.504a8.69 8.69 0 0 0-7.918 3.57 8.682 8.682 0 0 0 6.184 13.707l86.777 8.54c.297 0 .582.043.867.043a8.674 8.674 0 0 0 8.668-8.243c.234-4.617-3.2-8.605-7.8-9.07zm0 0M382.063 85.574a8.67 8.67 0 0 0 7.949 9.352l69.535 5.633h.703a8.687 8.687 0 0 0 9.027-8.329c.192-4.793-3.539-8.835-8.332-9.027l-69.539-5.633a8.678 8.678 0 0 0-9.344 8.004zm0 0" fill="#026ad1"/>
</svg>
