<svg xmlns="http://www.w3.org/2000/svg" width="512" height="512">
  <g fill="#e63330">
    <path d="M384 0H128c-14.138 0-25.6 11.461-25.6 25.6v460.8c0 14.138 11.461 25.6 25.6 25.6h256c14.138 0 25.6-11.461 25.6-25.6V25.6C409.6 11.461 398.138 0 384 0zm8.533 68.267H196.267c-4.713 0-8.533 3.82-8.533 8.533s3.82 8.533 8.533 8.533h196.267v332.8h-25.6c-4.713 0-8.533 3.82-8.533 8.533s3.82 8.533 8.533 8.533h25.6v51.2a8.533 8.533 0 0 1-8.533 8.533H128a8.533 8.533 0 0 1-8.533-8.533v-51.2h196.267c4.713 0 8.533-3.82 8.533-8.533s-3.82-8.533-8.533-8.533H119.467v-332.8h25.6c4.713 0 8.533-3.82 8.533-8.533s-3.82-8.533-8.533-8.533h-25.6V25.6A8.533 8.533 0 0 1 128 17.067h256a8.533 8.533 0 0 1 8.533 8.533v42.667z"/>
    <path d="M264.533 460.8h-17.067c-4.713 0-8.533 3.82-8.533 8.533s3.82 8.533 8.533 8.533h17.067c4.713 0 8.533-3.82 8.533-8.533s-3.82-8.533-8.533-8.533z"/>
  </g>
</svg>
